# xmcd CD Database Entry
#
# Track frame offsets:
# 150
# 12815
# 23490
# 38397
# 49075
# 61330
# 71362
# 82577
# 98572
# 111797
#
# Disc length: 1648 seconds
#
# Revision: 2
# Processed by: cddbd v1.4PL0 Copyright (c) Steve Scherf et al.
# Submitted via: tcd 2.0b
#
DISCID=60066e0a
DTITLE=Jerry Reed - Hottest Hits
DYEAR=1900
DGENRE=
TTITLE0=East Bound And Down
TTITLE1=Amos Moses
TTITLE2=She Got The Goldmine (I Got The Shaft)
TTITLE3=When You're Hot, You're Hot
TTITLE4=Georgia Sunshine
TTITLE5=Are You From Dixie (Cause I'm From Dixie Too)
TTITLE6=Guitar Man
TTITLE7=Down On The Corner
TTITLE8=A Good Woman's Love
TTITLE9=Alabama Wild Man
EXTD=
EXTT0=
EXTT1=
EXTT2=
EXTT3=
EXTT4=
EXTT5=
EXTT6=
EXTT7=
EXTT8=
EXTT9=
PLAYORDER=
